<?xml version="1.0" encoding="UTF-8"?>
<!DOCTYPE svg PUBLIC "-//W3C//DTD SVG 1.1//EN" "http://www.w3.org/Graphics/SVG/1.1/DTD/svg11.dtd">
<svg xmlns="http://www.w3.org/2000/svg" version="1.1" width="512px" height="207px" style="shape-rendering:geometricPrecision; text-rendering:geometricPrecision; image-rendering:optimizeQuality; fill-rule:evenodd; clip-rule:evenodd" xmlns:xlink="http://www.w3.org/1999/xlink">
<g><path style="opacity:1" fill="#000000" d="M 127.5,50.5 C 129.857,50.3367 132.19,50.5034 134.5,51C 136.032,51.6995 137.032,52.8662 137.5,54.5C 133.856,59.3121 130.022,63.9788 126,68.5C 126.333,74.1863 127.166,79.853 128.5,85.5C 128.337,89.4997 126.337,90.9997 122.5,90C 116.998,86.4145 111.331,83.0812 105.5,80C 89.5,79.3333 73.5,79.3333 57.5,80C 65.5,87.3333 73.5,94.6667 81.5,102C 86.0875,106.081 90.0875,110.581 93.5,115.5C 92.1026,118.406 90.1026,120.906 87.5,123C 72.9817,134.762 58.6483,146.762 44.5,159C 60.8242,160.077 77.1575,160.41 93.5,160C 100.833,154.333 108.167,148.667 115.5,143C 119.195,142.503 121.861,144.003 123.5,147.5C 119.01,159.507 113.677,171.007 107.5,182C 75.4073,183.25 43.074,183.417 10.5,182.5C 9.03139,180.808 8.36473,178.808 8.5,176.5C 9,172.5 9.5,168.5 10,164.5C 27.3434,148.655 44.51,132.655 61.5,116.5C 49.4262,106.048 37.2595,95.7147 25,85.5C 24.1937,76.1188 24.3604,66.7855 25.5,57.5C 26.0253,56.8076 26.6919,56.3076 27.5,56C 61.0003,54.3345 94.3336,52.5011 127.5,50.5 Z M 109.5,56.5 C 115.842,56.3338 122.175,56.5005 128.5,57C 129.833,57.6667 129.833,58.3333 128.5,59C 95.8372,60.6513 63.1705,62.1513 30.5,63.5C 30.5,62.5 30.5,61.5 30.5,60.5C 57.0104,59.6031 83.3437,58.2698 109.5,56.5 Z M 54.5,83.5 C 65.9614,93.1241 77.2948,102.957 88.5,113C 89.8333,115.333 89.1667,116.333 86.5,116C 75.6242,105.621 64.6242,95.4546 53.5,85.5C 53.8627,84.8165 54.1961,84.1499 54.5,83.5 Z M 64.5,119.5 C 65.7562,119.461 66.7562,119.961 67.5,121C 50.983,136.351 34.3163,151.518 17.5,166.5C 16.4173,165.635 16.2506,164.635 17,163.5C 33.0299,148.967 48.8633,134.301 64.5,119.5 Z M 114.5,150.5 C 116.981,151.696 116.981,153.196 114.5,155C 108.335,159.25 102.002,163.25 95.5,167C 78.1872,166.64 60.8538,166.474 43.5,166.5C 43.5,165.5 43.5,164.5 43.5,163.5C 60.8538,163.474 78.1872,163.64 95.5,164C 102.014,159.637 108.347,155.137 114.5,150.5 Z"/></g>
<g><path style="opacity:1" fill="#000000" d="M 365.5,50.5 C 368.779,50.3051 370.779,51.8051 371.5,55C 368.382,59.1211 364.882,62.9544 361,66.5C 357.752,89.4846 354.585,112.485 351.5,135.5C 351.818,136.647 352.484,137.481 353.5,138C 357.833,139.667 362.167,141.333 366.5,143C 367.982,145.592 367.648,147.925 365.5,150C 350.589,152.986 335.589,154.986 320.5,156C 319.424,154.274 319.257,152.441 320,150.5C 322.333,146.5 324.667,142.5 327,138.5C 328.367,116.323 329.867,94.1563 331.5,72C 331.167,70.5 330.833,69 330.5,67.5C 327.167,65.5 323.833,63.5 320.5,61.5C 317.84,58.9575 318.173,56.7908 321.5,55C 336.327,53.6006 350.994,52.1006 365.5,50.5 Z M 351.5,54.5 C 355.555,54.1758 359.555,54.5091 363.5,55.5C 363.291,56.086 362.957,56.586 362.5,57C 350.301,57.9747 338.135,59.1414 326,60.5C 324.941,60.3699 324.108,59.8699 323.5,59C 324.623,57.9563 325.956,57.2896 327.5,57C 335.684,56.4878 343.684,55.6545 351.5,54.5 Z M 350.5,141.5 C 355.305,141.659 359.638,142.993 363.5,145.5C 362.667,145.833 361.833,146.167 361,146.5C 357.836,145.668 354.669,144.834 351.5,144C 350.748,143.329 350.414,142.496 350.5,141.5 Z M 328.5,142.5 C 330.225,142.843 330.725,143.843 330,145.5C 329.038,148.456 327.372,150.79 325,152.5C 324.5,152.167 324,151.833 323.5,151.5C 324.925,148.312 326.592,145.312 328.5,142.5 Z"/></g>
<g><path style="opacity:1" fill="#000000" d="M 156.5,54.5 C 161.527,56.6834 166.193,59.5168 170.5,63C 184,73.1667 197.5,83.3333 211,93.5C 210.667,88.8333 210.333,84.1667 210,79.5C 216.127,71.7046 222.627,64.2046 229.5,57C 231.701,56.1751 233.534,56.6751 235,58.5C 234.708,85.8486 233.708,113.182 232,140.5C 229.716,142.984 227.216,143.151 224.5,141C 209.682,125.015 194.348,109.515 178.5,94.5C 176.457,113.475 174.623,132.475 173,151.5C 172.5,152 172,152.5 171.5,153C 158.143,153.11 144.81,152.443 131.5,151C 125.589,149.873 124.589,147.206 128.5,143C 133.833,140.667 139.167,138.333 144.5,136C 145.126,135.25 145.626,134.416 146,133.5C 147.602,107.795 149.602,82.1281 152,56.5C 153.622,55.9011 155.122,55.2344 156.5,54.5 Z M 157.5,60.5 C 176.465,73.9953 195.132,87.9953 213.5,102.5C 212.965,104.101 211.965,104.601 210.5,104C 193.68,90.7576 176.68,77.7576 159.5,65C 157.963,63.8904 157.297,62.3904 157.5,60.5 Z M 227.5,64.5 C 228.5,64.5 229.5,64.5 230.5,64.5C 230.649,65.552 230.483,66.552 230,67.5C 225.323,73.0086 220.49,78.3419 215.5,83.5C 214.692,83.1924 214.025,82.6924 213.5,82C 218.784,76.5615 223.45,70.7282 227.5,64.5 Z M 142.5,140.5 C 143.978,140.238 145.311,140.571 146.5,141.5C 146.291,142.086 145.957,142.586 145.5,143C 141.129,144.401 136.796,145.901 132.5,147.5C 131.269,146.349 131.269,145.183 132.5,144C 136.109,143.299 139.442,142.132 142.5,140.5 Z"/></g>
<g><path style="opacity:1" fill="#000000" d="M 282.5,55.5 C 285.85,55.335 289.183,55.5017 292.5,56C 295.576,61.046 296.743,66.546 296,72.5C 295.5,73 295,73.5 294.5,74C 286.759,75.0911 279.092,76.4244 271.5,78C 268.193,86.2835 263.86,93.9501 258.5,101C 264.639,108.972 271.305,116.472 278.5,123.5C 282.985,119.515 287.318,115.349 291.5,111C 286.044,107.213 280.877,103.046 276,98.5C 275.257,96.5594 275.424,94.7261 276.5,93C 288.155,91.7457 299.822,91.0791 311.5,91C 313.538,92.236 314.705,94.0694 315,96.5C 316.237,103.146 316.903,109.812 317,116.5C 309.608,125.466 302.108,134.3 294.5,143C 284.154,143.375 273.821,143.041 263.5,142C 255.624,132.774 248.457,122.941 242,112.5C 238.383,110.061 236.216,106.727 235.5,102.5C 241.237,88.2846 246.571,73.9513 251.5,59.5C 261.876,57.6561 272.21,56.3228 282.5,55.5 Z M 285.5,58.5 C 293.477,59.3689 293.477,60.5355 285.5,62C 276.167,62.6667 266.833,63.3333 257.5,64C 252.278,76.2885 247.445,88.7885 243,101.5C 242.586,101.957 242.086,102.291 241.5,102.5C 240.386,101.277 240.219,99.9437 241,98.5C 245.136,86.4237 249.47,74.4237 254,62.5C 255.067,61.8095 256.234,61.3095 257.5,61C 267.015,60.4898 276.348,59.6564 285.5,58.5 Z M 296.5,93.5 C 301.214,93.1734 305.88,93.5067 310.5,94.5C 311.823,100.106 312.823,105.773 313.5,111.5C 312.5,111.5 311.5,111.5 310.5,111.5C 309.725,106.516 309.058,101.516 308.5,96.5C 299.769,96.6075 291.102,97.2742 282.5,98.5C 280.35,97.593 280.183,96.593 282,95.5C 286.98,94.9072 291.814,94.2405 296.5,93.5 Z M 255.5,103.5 C 263.376,110.545 270.876,118.212 278,126.5C 283.167,122 288.333,117.5 293.5,113C 294.635,112.251 295.635,112.417 296.5,113.5C 292.068,118.221 287.401,122.721 282.5,127C 280.99,127.85 279.49,128.683 278,129.5C 271.012,123.846 264.679,117.512 259,110.5C 257.121,108.473 255.954,106.14 255.5,103.5 Z"/></g>
<g><path style="opacity:1" fill="#000000" d="M 467.5,58.5 C 478.554,59.0899 489.554,60.2565 500.5,62C 501,62.5 501.5,63 502,63.5C 502.464,69.5295 502.131,75.5295 501,81.5C 500.5,82 500,82.5 499.5,83C 493.843,83.4994 488.176,83.6661 482.5,83.5C 483.26,88.1502 483.926,92.8169 484.5,97.5C 488.163,96.6594 491.83,96.1594 495.5,96C 496.743,97.8697 497.41,100.036 497.5,102.5C 497.164,107.184 496.664,111.851 496,116.5C 494.701,117.98 493.034,118.646 491,118.5C 488.813,118.212 486.646,117.878 484.5,117.5C 484.338,119.527 484.505,121.527 485,123.5C 490.944,121.616 496.944,120.95 503,121.5C 503.781,122.729 504.281,124.062 504.5,125.5C 503.848,130.531 503.015,135.531 502,140.5C 500.174,142.074 498.007,142.907 495.5,143C 485.183,144.117 474.85,144.45 464.5,144C 463.833,143 463.167,142 462.5,141C 463.959,114.575 465.126,88.0749 466,61.5C 466.513,60.4734 467.013,59.4734 467.5,58.5 Z M 468.5,61.5 C 477.163,61.9802 485.83,62.4802 494.5,63C 495.938,63.2189 497.271,63.7189 498.5,64.5C 498.113,65.7199 497.28,66.3865 496,66.5C 486.844,65.7061 477.678,64.8727 468.5,64C 467.402,63.2303 467.402,62.397 468.5,61.5 Z M 493.5,98.5 C 496.018,99.6937 496.018,100.86 493.5,102C 490.446,102.821 487.446,102.655 484.5,101.5C 484.709,100.914 485.043,100.414 485.5,100C 488.365,99.8171 491.031,99.3171 493.5,98.5 Z M 489.5,124.5 C 492.833,124.5 496.167,124.5 499.5,124.5C 499.5,125.5 499.5,126.5 499.5,127.5C 494.456,127.582 489.456,127.749 484.5,128C 483.167,127.333 483.167,126.667 484.5,126C 486.382,125.802 488.048,125.302 489.5,124.5 Z"/></g>
<g><path style="opacity:1" fill="#000000" d="M 393.5,61.5 C 406.561,69.4493 419.394,77.7826 432,86.5C 432.376,81.9967 432.209,77.4967 431.5,73C 431.274,70.3291 431.941,67.9958 433.5,66C 440.694,64.6278 447.861,63.1278 455,61.5C 456.226,61.6448 457.393,61.9781 458.5,62.5C 458.833,65 459.167,67.5 459.5,70C 457.787,92.1764 455.954,114.343 454,136.5C 453.161,145.779 449.828,146.779 444,139.5C 433.301,125.426 422.135,111.76 410.5,98.5C 408.782,112.086 406.782,125.586 404.5,139C 403.391,139.638 402.225,140.138 401,140.5C 390.175,139.362 379.342,138.195 368.5,137C 366.675,135.534 366.175,133.701 367,131.5C 371.564,127.469 376.397,123.802 381.5,120.5C 384.658,101.893 387.492,83.2259 390,64.5C 391.145,63.3636 392.312,62.3636 393.5,61.5 Z M 450.5,64.5 C 452.604,64.2011 454.604,64.5344 456.5,65.5C 456.291,66.086 455.957,66.586 455.5,67C 449.357,68.2952 443.191,69.4619 437,70.5C 434.759,70.3199 434.259,69.4865 435.5,68C 440.679,67.0341 445.679,65.8675 450.5,64.5 Z M 392.5,65.5 C 406.294,72.9027 419.294,81.5694 431.5,91.5C 430.635,92.5827 429.635,92.7494 428.5,92C 417.167,84.3333 405.833,76.6667 394.5,69C 393.177,68.1841 392.511,67.0174 392.5,65.5 Z M 380.5,123.5 C 381.675,123.281 382.675,123.614 383.5,124.5C 380.393,127.56 377.059,130.394 373.5,133C 372.365,133.749 371.365,133.583 370.5,132.5C 373.853,129.478 377.187,126.478 380.5,123.5 Z"/></g>
</svg>
